arm26_states
version=1
nRows=13
nColumns=17
inDegrees=yes

# SIMM Motion File Header:
name arm26_states
datacolumns 17
datarows 13
otherdata 1
range 0.00000000 0.03479048
endheader
time	r_shoulder_elev	r_elbow_flex	r_shoulder_elev_u	r_elbow_flex_u	TRIlong.activation	TRIlong.fiber_length	TRIlat.activation	TRIlat.fiber_length	TRImed.activation	TRImed.fiber_length	BIClong.activation	BIClong.fiber_length	BICshort.activation	BICshort.fiber_length	BRA.activation	BRA.fiber_length
      0.00000000	      0.00000000	      0.00000000	      0.00000000	      0.00000000	      0.00000000	      0.13675721	      0.00000000	      0.07086738	      0.00000000	      0.06588666	      0.00000000	      0.14850826	      0.00000000	      0.14786332	      0.00000000	      0.09345467
      0.00116784	     -0.00036976	      0.00134826	     -0.63323468	      2.30917978	      0.00013532	      0.13675635	      0.00059487	      0.07086464	      0.00058719	      0.06588431	      0.00089852	      0.14850466	      0.00055115	      0.14786002	      0.00034365	      0.09345340
      0.00379746	     -0.00390409	      0.01424909	     -2.05258991	      7.49894366	      0.00031790	      0.13675326	      0.00183285	      0.07084834	      0.00181115	      0.06587003	      0.00322722	      0.14848522	      0.00182344	      0.14784005	      0.00109981	      0.09344643
      0.00708817	     -0.01353496	      0.04951438	     -3.79184208	     13.91448788	      0.00036326	      0.13675421	      0.00322511	      0.07082529	      0.00319092	      0.06585061	      0.00661393	      0.14845309	      0.00346395	      0.14780688	      0.00201880	      0.09343224
      0.01037889	     -0.02880274	      0.10570748	     -5.47855101	     20.21986321	      0.00033906	      0.13676126	      0.00438300	      0.07080920	      0.00434012	      0.06583835	      0.01046759	      0.14841626	      0.00505582	      0.14777081	      0.00281551	      0.09341445
      0.01308967	     -0.04548072	      0.16743814	     -6.81872340	     25.30846071	      0.00031934	      0.13677047	      0.00490971	      0.07080576	      0.00486084	      0.06583762	      0.01412408	      0.14838207	      0.00609166	      0.14774215	      0.00312284	      0.09339638
      0.01580045	     -0.06573239	      0.24284103	     -8.11534787	     30.30804961	      0.00030168	      0.13678212	      0.00512708	      0.07081256	      0.00507294	      0.06584663	      0.01812173	      0.14834438	      0.00692399	      0.14771589	      0.00318152	      0.09337749
      0.01964430	     -0.10034814	      0.37274603	     -9.88288375	     37.25975991	      0.00027917	      0.13680274	      0.00517851	      0.07083983	      0.00511806	      0.06587638	      0.02414164	      0.14828672	      0.00797232	      0.14768038	      0.00314604	      0.09334516
      0.02226749	     -0.12781676	      0.47665140	    -11.05633655	     41.95669747	      0.00026461	      0.13681959	      0.00522336	      0.07086807	      0.00515944	      0.06590568	      0.02834265	      0.14824566	      0.00875049	      0.14765502	      0.00312545	      0.09332024
      0.02489069	     -0.15833329	      0.59284187	    -12.20707528	     46.62745707	      0.00025061	      0.13683876	      0.00528099	      0.07090175	      0.00521412	      0.06594006	      0.03259494	      0.14820372	      0.00957266	      0.14762748	      0.00310975	      0.09329128
      0.02887816	     -0.21044125	      0.79288614	    -13.92289129	     53.70732949	      0.00023052	      0.13687240	      0.00538675	      0.07096190	      0.00531597	      0.06600094	      0.03903833	      0.14813875	      0.01087344	      0.14758155	      0.00309342	      0.09324180
      0.03183432	     -0.25344748	      0.95939382	    -15.16936724	     58.94150310	      0.00021661	      0.13690097	      0.00547548	      0.07101315	      0.00540206	      0.06605262	      0.04375561	      0.14809004	      0.01186094	      0.14754461	      0.00308611	      0.09319966
      0.03479048	     -0.30011205	      1.14137193	    -16.39932065	     64.17776247	      0.00020349	      0.13693270	      0.00556892	      0.07107002	      0.00549299	      0.06610987	      0.04842383	      0.14804085	      0.01285946	      0.14750529	      0.00308203	      0.09315460
